<?xml version="1.0" encoding="UTF-8"?>
<svg width="52px" height="56px" viewBox="0 0 52 56" version="1.1" xmlns="http://www.w3.org/2000/svg" xmlns:xlink="http://www.w3.org/1999/xlink">
    <!-- Generator: Sketch 52.5 (67469) - http://www.bohemiancoding.com/sketch -->
    <title>chance-of-rain</title>
    <desc>Created with Sketch.</desc>
    <g id="Page-1" stroke="none" stroke-width="1" fill="none" fill-rule="evenodd">
        <g id="chance-of-rain" fill="#000000">
            <path d="M28,4.085 L28,2 C28,0.896 27.104,0 26,0 C24.895,0 24,0.896 24,2 L24,4.085 C10.595,5.11 0,16.337 0,30 C0,31.104 0.895,32 2,32 C3.104,32 4,31.104 4,30 C4,27.794 5.794,26 8,26 C10.206,26 12,27.794 12,30 C12,31.104 12.895,32 14,32 C15.104,32 16,31.104 16,30 C16,27.794 17.794,26 20,26 C22.206,26 24,27.794 24,30 L24,51 C24,53.757 26.243,56 29,56 C31.757,56 34,53.757 34,51 C34,49.896 33.104,49 32,49 C30.895,49 30,49.896 30,51 C30,51.552 29.552,52 29,52 C28.448,52 28,51.552 28,51 L28,30 C28,27.794 29.794,26 32,26 C34.206,26 36,27.794 36,30 C36,31.104 36.895,32 38,32 C39.104,32 40,31.104 40,30 C40,27.794 41.794,26 44,26 C46.206,26 48,27.794 48,30 C48,31.104 48.895,32 50,32 C51.104,32 52,31.104 52,30 C52,16.337 41.405,5.11 28,4.085 Z" id="Path"></path>
        </g>
    </g>
</svg>