<?xml version="1.0" encoding="UTF-8"?>
<svg width="64px" height="34px" viewBox="0 0 64 34" version="1.1" xmlns="http://www.w3.org/2000/svg" xmlns:xlink="http://www.w3.org/1999/xlink">
    <!-- Generator: Sketch 52.5 (67469) - http://www.bohemiancoding.com/sketch -->
    <title>fog</title>
    <desc>Created with Sketch.</desc>
    <g id="Page-1" stroke="none" stroke-width="1" fill="none" fill-rule="evenodd">
        <g id="fog" fill="#000000">
            <path d="M23,4 L35,4 C36.104,4 37,3.104 37,2 C37,0.896 36.104,0 35,0 L23,0 C21.895,0 21,0.896 21,2 C21,3.104 21.895,4 23,4 Z" id="Path"></path>
            <path d="M11,10 L35,10 C36.104,10 37,9.104 37,8 C37,6.896 36.104,6 35,6 L11,6 C9.895,6 9,6.896 9,8 C9,9.104 9.895,10 11,10 Z" id="Path"></path>
            <path d="M4.999,16 L29,16 C30.104,16 31,15.104 31,14 C31,12.896 30.104,12 29,12 L4.999,12 C3.894,12 2.999,12.896 2.999,14 C2.999,15.104 3.894,16 4.999,16 Z" id="Path"></path>
            <path d="M64,20 C64,18.896 63.104,18 62,18 L2,18 C0.895,18 0,18.896 0,20 C0,21.104 0.895,22 2,22 L62,22 C63.104,22 64,21.104 64,20 Z" id="Path"></path>
            <path d="M62,24 L5,24 C3.895,24 3,24.896 3,26 C3,27.104 3.895,28 5,28 L62,28 C63.104,28 64,27.104 64,26 C64,24.896 63.104,24 62,24 Z" id="Path"></path>
            <path d="M23,30 L11,29.999 C9.895,29.999 9,30.895 9,31.999 C9,33.103 9.895,33.999 11,33.999 L23,34 C24.104,34 25,33.104 25,32 C25,30.896 24.104,30 23,30 Z" id="Path"></path>
            <path d="M42,10 L50,10 C51.104,10 52,9.104 52,8 C52,6.896 51.104,6 50,6 L42,6 C40.895,6 40,6.896 40,8 C40,9.104 40.895,10 42,10 Z" id="Path"></path>
            <path d="M33,14 C33,15.104 33.895,16 35,16 L56,16 C57.104,16 58,15.104 58,14 C58,12.896 57.104,12 56,12 L35,12 C33.895,12 33,12.896 33,14 Z" id="Path"></path>
            <path d="M56,29.999 L29,30 C27.895,30 27,30.896 27,32 C27,33.104 27.895,34 29,34 L56,33.999 C57.104,33.999 58,33.103 58,31.999 C58,30.895 57.104,29.999 56,29.999 Z" id="Path"></path>
        </g>
    </g>
</svg>