<?xml version="1.0" encoding="UTF-8"?>
<svg width="67px" height="52px" viewBox="0 0 67 52" version="1.1" xmlns="http://www.w3.org/2000/svg" xmlns:xlink="http://www.w3.org/1999/xlink">
    <!-- Generator: Sketch 52.5 (67469) - http://www.bohemiancoding.com/sketch -->
    <title>partly-cloudy-day</title>
    <desc>Created with Sketch.</desc>
    <g id="Page-1" stroke="none" stroke-width="1" fill="none" fill-rule="evenodd">
        <g id="partly-cloudy-day" fill="#000000">
            <path d="M53.556,32.187 C54.501,30.271 55,28.166 55,26 C55,18.28 48.72,12 41,12 C36.399,12 32.105,14.281 29.504,18.021 C29.336,18.016 29.17,18 29.001,18 C21.337,18 14.782,23.012 12.69,30.184 C12.113,30.079 11.508,30 11.001,30 C4.935,30 0.001,34.935 0.001,41 C0.001,47.065 4.935,52 11.001,52 L47.001,52 C53.066,52 58.001,47.065 58.001,41 C58.001,37.392 56.247,34.194 53.556,32.187 Z M41,16 C46.514,16 51,20.486 51,26 C51,27.548 50.64,29.05 49.964,30.417 C49.019,30.152 48.028,30 47.001,30 C46.493,30 45.889,30.079 45.311,30.184 C43.703,24.673 39.457,20.449 34.101,18.783 C35.939,17.03 38.397,16 41,16 Z M47.001,48 L11.001,48 C7.142,48 4.001,44.859 4.001,41 C4.001,37.141 7.142,34 11.001,34 C11.278,34 11.724,34.068 12.194,34.162 L12.194,36 C12.194,37.104 13.09,38 14.194,38 C15.298,38 16.194,37.104 16.194,36 L16.194,32.781 C17.267,26.528 22.63,22 29.001,22 C35.373,22 40.737,26.53 41.808,32.786 L41.808,36 C41.808,37.104 42.704,38 43.808,38 C44.912,38 45.808,37.104 45.808,36 L45.808,34.163 C46.279,34.069 46.727,34 47.001,34 C50.86,34 54.001,37.141 54.001,41 C54.001,44.859 50.86,48 47.001,48 Z" id="Shape" fill-rule="nonzero"></path>
            <path d="M41,8 C42.104,8 43,7.104 43,6 L43,2 C43,0.896 42.104,0 41,0 C39.895,0 39,0.896 39,2 L39,6 C39,7.104 39.895,8 41,8 Z" id="Path"></path>
            <path d="M65,24 L61,24 C59.895,24 59,24.896 59,26 C59,27.104 59.895,28 61,28 L65,28 C66.104,28 67,27.104 67,26 C67,24.896 66.104,24 65,24 Z" id="Path"></path>
            <path d="M55.143,13.857 C55.655,13.857 56.166,13.662 56.557,13.271 L59.385,10.443 C60.166,9.662 60.166,8.396 59.385,7.615 C58.604,6.834 57.338,6.834 56.557,7.615 L53.729,10.443 C52.948,11.224 52.948,12.49 53.729,13.271 C54.119,13.662 54.631,13.857 55.143,13.857 Z" id="Path"></path>
            <path d="M25.443,13.271 C25.834,13.662 26.345,13.857 26.857,13.857 C27.369,13.857 27.88,13.662 28.271,13.271 C29.052,12.49 29.052,11.224 28.271,10.443 L25.443,7.615 C24.662,6.834 23.396,6.834 22.615,7.615 C21.834,8.396 21.834,9.662 22.615,10.443 L25.443,13.271 Z" id="Path"></path>
        </g>
    </g>
</svg>