<?xml version="1.0" encoding="UTF-8"?>
<svg width="58px" height="46px" viewBox="0 0 58 46" version="1.1" xmlns="http://www.w3.org/2000/svg" xmlns:xlink="http://www.w3.org/1999/xlink">
    <!-- Generator: Sketch 52.5 (67469) - http://www.bohemiancoding.com/sketch -->
    <title>partly-cloudy-night</title>
    <desc>Created with Sketch.</desc>
    <g id="Page-1" stroke="none" stroke-width="1" fill="none" fill-rule="evenodd">
        <g id="partly-cloudy-night" fill="#000000" fill-rule="nonzero">
            <path d="M50.24,24.488 C53.173,21.886 55,18.094 55,14 C55,12.896 54.104,12 53,12 C47.486,12 43,7.514 43,2 C43,0.896 42.104,0 41,0 C33.922,0 28.069,5.284 27.143,12.111 C20.295,12.848 14.61,17.599 12.689,24.183 C12.112,24.079 11.507,24 11,24 C4.935,24 0,28.935 0,35 C0,41.065 4.935,46 11,46 L47,46 C53.065,46 58,41.065 58,35 C58,30.062 54.728,25.875 50.24,24.488 Z M39.168,4.168 C40.102,10.153 44.843,14.896 50.828,15.832 C50.213,19.078 47.988,21.838 44.966,23.158 C42.812,17.21 37.519,12.952 31.174,12.15 C31.933,8.111 35.126,4.92 39.168,4.168 Z M47,42 L11,42 C7.141,42 4,38.859 4,35 C4,31.141 7.141,28 11,28 C11.277,28 11.724,28.068 12.194,28.162 L12.194,30 C12.194,31.104 13.09,32 14.194,32 C15.298,32 16.194,31.104 16.194,30 L16.194,26.776 C17.269,20.525 22.631,16 29,16 C35.372,16 40.736,20.53 41.808,26.787 L41.808,30 C41.808,31.104 42.704,32 43.808,32 C44.912,32 45.808,31.104 45.808,30 L45.808,28.163 C46.278,28.069 46.726,28 47,28 C50.859,28 54,31.141 54,35 C54,38.859 50.859,42 47,42 Z" id="Shape"></path>
        </g>
    </g>
</svg>