<?xml version="1.0" encoding="UTF-8"?>
<svg width="58px" height="48px" viewBox="0 0 58 48" version="1.1" xmlns="http://www.w3.org/2000/svg" xmlns:xlink="http://www.w3.org/1999/xlink">
    <!-- Generator: Sketch 52.5 (67469) - http://www.bohemiancoding.com/sketch -->
    <title>snow</title>
    <desc>Created with Sketch.</desc>
    <g id="Page-1" stroke="none" stroke-width="1" fill="none" fill-rule="evenodd">
        <g id="snow" fill="#000000">
            <path d="M47,12 C46.493,12 45.888,12.079 45.312,12.184 C43.218,5.012 36.663,0 29,0 C21.337,0 14.782,5.012 12.689,12.184 C12.112,12.079 11.507,12 11,12 C4.935,12 0,16.935 0,23 C0,29.065 4.935,34 11,34 C12.104,34 13,33.104 13,32 C13,30.896 12.104,30 11,30 C7.14,30 4,26.859 4,23 C4,19.141 7.14,16 11,16 C11.277,16 11.723,16.068 12.193,16.162 L12.193,18 C12.193,19.104 13.089,20 14.193,20 C15.297,20 16.193,19.104 16.193,18 L16.193,14.779 C17.268,8.527 22.631,4 29,4 C35.369,4 40.732,8.527 41.807,14.779 L41.807,18 C41.807,19.104 42.703,20 43.807,20 C44.911,20 45.807,19.104 45.807,18 L45.807,16.162 C46.277,16.068 46.723,16 47,16 C50.859,16 54,19.141 54,23 C54,26.859 50.859,30 47,30 C45.896,30 45,30.896 45,32 C45,33.104 45.896,34 47,34 C53.065,34 58,29.065 58,23 C58,16.935 53.065,12 47,12 Z" id="Path"></path>
            <path d="M26.732,34.464 C26.181,33.508 24.957,33.18 24,33.731 C23.043,34.284 22.716,35.506 23.268,36.463 L24.268,38.195 C24.638,38.837 25.31,39.195 26.002,39.195 C26.341,39.195 26.685,39.109 27,38.927 C27.957,38.374 28.284,37.152 27.732,36.195 L26.732,34.464 Z" id="Path"></path>
            <path d="M21.732,25.804 C21.18,24.848 19.956,24.52 19,25.071 C18.043,25.624 17.716,26.846 18.268,27.803 L19.268,29.535 C19.638,30.177 20.31,30.535 21.002,30.535 C21.341,30.535 21.685,30.449 22,30.268 C22.957,29.715 23.284,28.493 22.732,27.535 L21.732,25.804 Z" id="Path"></path>
            <path d="M24,30.269 C24.315,30.451 24.659,30.536 24.998,30.536 C25.689,30.536 26.362,30.178 26.732,29.536 L27.732,27.804 C28.284,26.847 27.957,25.624 27,25.072 C26.043,24.52 24.819,24.848 24.268,25.804 L23.268,27.536 C22.716,28.493 23.043,29.716 24,30.269 Z" id="Path"></path>
            <path d="M22,33.731 C21.043,33.179 19.82,33.507 19.268,34.464 L18.268,36.196 C17.716,37.153 18.043,38.376 19,38.928 C19.315,39.11 19.659,39.196 19.998,39.196 C20.689,39.196 21.362,38.838 21.732,38.196 L22.732,36.464 C23.284,35.507 22.957,34.284 22,33.731 Z" id="Path"></path>
            <path d="M21,32 C21,30.896 20.104,30 19,30 L17,30 C15.896,30 15,30.896 15,32 C15,33.104 15.896,34 17,34 L19,34 C20.104,34 21,33.104 21,32 Z" id="Path"></path>
            <path d="M31,32 C31,30.896 30.104,30 29,30 L27,30 C25.896,30 25,30.896 25,32 C25,33.104 25.896,34 27,34 L29,34 C30.104,34 31,33.104 31,32 Z" id="Path"></path>
            <path d="M41.732,43.268 C41.181,42.312 39.956,41.984 39,42.536 C38.043,43.089 37.716,44.311 38.268,45.268 L39.268,47 C39.638,47.642 40.31,48 41.002,48 C41.341,48 41.685,47.914 42,47.732 C42.957,47.179 43.284,45.957 42.732,45 L41.732,43.268 Z" id="Path"></path>
            <path d="M36.732,34.607 C36.18,33.651 34.957,33.323 34,33.875 C33.043,34.428 32.716,35.65 33.268,36.607 L34.268,38.339 C34.638,38.981 35.31,39.339 36.002,39.339 C36.341,39.339 36.685,39.253 37,39.072 C37.957,38.519 38.284,37.297 37.732,36.339 L36.732,34.607 Z" id="Path"></path>
            <path d="M39,39.072 C39.315,39.254 39.659,39.339 39.998,39.339 C40.689,39.339 41.362,38.981 41.732,38.339 L42.732,36.607 C43.284,35.65 42.957,34.427 42,33.875 C41.043,33.323 39.82,33.651 39.268,34.607 L38.268,36.339 C37.716,37.297 38.043,38.52 39,39.072 Z" id="Path"></path>
            <path d="M37,42.535 C36.043,41.983 34.82,42.311 34.268,43.267 L33.268,44.999 C32.716,45.956 33.043,47.179 34,47.731 C34.315,47.914 34.659,48 34.998,48 C35.689,48 36.362,47.642 36.732,47 L37.732,45.268 C38.284,44.311 37.957,43.088 37,42.535 Z" id="Path"></path>
            <path d="M36,40.804 C36,39.7 35.104,38.804 34,38.804 L32,38.804 C30.896,38.804 30,39.7 30,40.804 C30,41.908 30.896,42.804 32,42.804 L34,42.804 C35.104,42.804 36,41.908 36,40.804 Z" id="Path"></path>
            <path d="M44,38.804 L42,38.804 C40.896,38.804 40,39.7 40,40.804 C40,41.908 40.896,42.804 42,42.804 L44,42.804 C45.104,42.804 46,41.908 46,40.804 C46,39.7 45.104,38.804 44,38.804 Z" id="Path"></path>
        </g>
    </g>
</svg>