<?xml version="1.0" encoding="UTF-8"?>
<svg width="52px" height="40px" viewBox="0 0 52 40" version="1.1" xmlns="http://www.w3.org/2000/svg" xmlns:xlink="http://www.w3.org/1999/xlink">
    <!-- Generator: Sketch 52.5 (67469) - http://www.bohemiancoding.com/sketch -->
    <title>wind</title>
    <desc>Created with Sketch.</desc>
    <g id="Page-1" stroke="none" stroke-width="1" fill="none" fill-rule="evenodd">
        <g id="wind" transform="translate(-1.000000, 0.000000)" fill="#000000">
            <path d="M33,18 L2.999,17.999 C1.895,17.999 0.999,18.895 0.999,19.999 C0.999,21.103 1.895,21.999 2.999,21.999 L33,22 C36.859,22 40,25.141 40,29 C40,32.859 36.859,36 33,36 C31.895,36 31,36.896 31,38 C31,39.104 31.895,40 33,40 C39.065,40 44,35.065 44,29 C44,22.935 39.065,18 33,18 Z" id="Path"></path>
            <path d="M26.999,24 L3,24 C1.896,24 1,24.896 1,26 C1,27.104 1.896,28 3,28 L26.999,28 C27.551,28 27.999,28.448 27.999,29 C27.999,29.552 27.551,30 26.999,30 C25.894,30 24.999,30.896 24.999,32 C24.999,33.104 25.894,34 26.999,34 C29.756,34 31.999,31.757 31.999,29 C31.999,26.243 29.756,24 26.999,24 Z" id="Path"></path>
            <path d="M48,10 C46.896,10 46,10.896 46,12 C46,13.104 46.896,14 48,14 C48.552,14 49,14.448 49,15 C49,15.552 48.552,16 48,16 L44,16 C42.895,16 42,16.896 42,18 C42,19.104 42.895,20 44,20 L48,20 C50.757,20 53,17.757 53,15 C53,12.243 50.757,10 48,10 Z" id="Path"></path>
            <path d="M2.999,15.999 L36,16 C40.411,16 44,12.411 44,8 C44,3.589 40.411,0 36,0 C31.589,0 28,3.589 28,8 C28,9.104 28.895,10 30,10 C31.104,10 32,9.104 32,8 C32,5.794 33.794,4 36,4 C38.206,4 40,5.794 40,8 C40,10.206 38.206,12 36,12 L2.999,11.999 C1.895,11.999 0.999,12.895 0.999,13.999 C0.999,15.103 1.895,15.999 2.999,15.999 Z" id="Path"></path>
        </g>
    </g>
</svg>